<svg width="30" height="30" viewBox="0 0 32 32" fill="none" xmlns="http://www.w3.org/2000/svg">
<path d="M31 31L28 28M15.25 29.5C17.1213 29.5 18.9743 29.1314 20.7032 28.4153C22.4321 27.6992 24.003 26.6495 25.3263 25.3263C26.6495 24.003 27.6992 22.4321 28.4153 20.7032C29.1314 18.9743 29.5 17.1213 29.5 15.25C29.5 13.3787 29.1314 11.5257 28.4153 9.79676C27.6992 8.06787 26.6495 6.49696 25.3263 5.17373C24.003 3.85049 22.4321 2.80085 20.7032 2.08472C18.9743 1.36859 17.1213 1 15.25 1C11.4707 1 7.84612 2.50133 5.17373 5.17373C2.50133 7.84612 1 11.4707 1 15.25C1 19.0293 2.50133 22.6539 5.17373 25.3263C7.84612 27.9987 11.4707 29.5 15.25 29.5Z" stroke="#08433F" stroke-width="2" stroke-linecap="round" stroke-linejoin="round"/>
<path d="M23.4813 6.51011C24.1729 7.20199 24.1729 8.31604 23.4813 8.99619L18.9216 13.5579L21.4066 24.3348L19.7538 26L15.2059 17.287L10.6344 21.8605L11.0564 24.757L9.8022 26L7.73919 22.2709L4 20.1952L5.24249 18.9288L8.17289 19.3626L12.7092 14.8244L4 10.2392L5.66447 8.58575L16.4366 11.0718L20.9963 6.51011C21.6527 5.82996 22.8249 5.82996 23.4813 6.51011Z" fill="#08433F"/>
</svg>
