<svg width="30" height="30" viewBox="0 0 40 40" fill="hsla(176, 79%, 15%, 1)" xmlns="http://www.w3.org/2000/svg">
<path d="M32.9999 9.45001C35.0833 11.9833 36.3666 15.0667 36.6666 18.3333H33.2333C32.8999 15.95 31.9333 13.7 30.4333 11.8333L32.9999 9.45001ZM21.6666 3.41667C24.9333 3.73334 28.0166 5.00001 30.5499 7.10001L28.1666 9.48334C26.2833 8.00001 24.0333 7.06667 21.6666 6.75001V3.41667ZM18.3333 3.43334C15.0666 3.76667 11.9833 5.05001 9.44992 7.11667L11.8333 9.48334C13.7166 8.01667 15.9666 7.06667 18.3333 6.76667V3.43334ZM7.09992 9.45001L9.38325 11.7667V11.8333C7.91659 13.7167 6.96659 15.9667 6.66659 18.3333H3.33325C3.68325 15.0667 4.99992 11.9667 7.09992 9.45001ZM3.33325 23.3333V31.6667L5.99992 29C8.96659 33.6167 14.1166 36.6667 19.9999 36.6667C28.0333 36.6667 34.7833 30.9167 36.3333 23.3333H32.9166C31.4333 29.0833 26.1999 33.3333 19.9999 33.3333C15.0833 33.3333 10.6499 30.65 8.33325 26.6667L11.6666 23.3333H3.33325ZM19.9999 28.3333L22.5999 22.6333L28.3333 20L22.5999 17.4L19.9999 11.6667L17.3833 17.4L11.6666 20L17.3833 22.6333L19.9999 28.3333Z" fill="hsla(176, 79%, 15%, 1)"/>
</svg>
