<svg width="20" height="20" viewBox="0 0 20 20" fill="hsla(176, 79%, 15%, 1)" xmlns="http://www.w3.org/2000/svg">
<path d="M7.5 8.33301V9.99967H5.83333V8.33301H7.5ZM10.8333 8.33301V9.99967H9.16667V8.33301H10.8333ZM14.1667 8.33301V9.99967H12.5V8.33301H14.1667ZM15.8333 2.49967C16.2754 2.49967 16.6993 2.67527 17.0118 2.98783C17.3244 3.30039 17.5 3.72431 17.5 4.16634V15.833C17.5 16.275 17.3244 16.699 17.0118 17.0115C16.6993 17.3241 16.2754 17.4997 15.8333 17.4997H4.16667C3.24167 17.4997 2.5 16.7497 2.5 15.833V4.16634C2.5 3.72431 2.67559 3.30039 2.98816 2.98783C3.30072 2.67527 3.72464 2.49967 4.16667 2.49967H5V0.833008H6.66667V2.49967H13.3333V0.833008H15V2.49967H15.8333ZM15.8333 15.833V6.66634H4.16667V15.833H15.8333ZM7.5 11.6663V13.333H5.83333V11.6663H7.5ZM10.8333 11.6663V13.333H9.16667V11.6663H10.8333ZM14.1667 11.6663V13.333H12.5V11.6663H14.1667Z" fill="hsla(176, 79%, 15%, 1)"/>
</svg>