<svg width="50" height="50" viewBox="0 0 40 40" fill="hsla(173, 68%, 44%, 1)" xmlns="http://www.w3.org/2000/svg">
<path d="M31.7834 8.21667C28.7001 5 24.4334 3.26667 20.0001 3.33334C15.5667 3.26667 11.3167 5 8.2334 8.21667C5.00006 11.3 3.26673 15.5667 3.3334 20C3.26673 24.4333 5.00006 28.6833 8.21673 31.7667C11.3001 35 15.5667 36.7333 20.0001 36.6667C24.4334 36.7333 28.6834 35 31.7667 31.7833C35.0001 28.7 36.7334 24.4333 36.6667 20C36.7334 15.5667 35.0001 11.3 31.7834 8.21667ZM28.3334 20V30H22.5001V21.6667H17.5001V30H11.6667V20H8.3334L20.0001 8.33334L32.5001 20H28.3334Z" fill="hsla(173, 68%, 44%, 1)"/>
</svg>
