<svg width="50" height="50" viewBox="0 0 40 40" fill="hsla(173, 68%, 44%, 1)" xmlns="http://www.w3.org/2000/svg">
<path d="M19.9999 31.8667C15.8333 31.8667 12.1499 29.7333 9.99992 26.5333C10.0499 23.2 16.6666 21.3667 19.9999 21.3667C23.3333 21.3667 29.9499 23.2 29.9999 26.5333C27.8499 29.7333 24.1666 31.8667 19.9999 31.8667ZM19.9999 8.2C21.326 8.2 22.5978 8.72678 23.5355 9.66446C24.4731 10.6021 24.9999 11.8739 24.9999 13.2C24.9999 14.5261 24.4731 15.7979 23.5355 16.7355C22.5978 17.6732 21.326 18.2 19.9999 18.2C18.6738 18.2 17.4021 17.6732 16.4644 16.7355C15.5267 15.7979 14.9999 14.5261 14.9999 13.2C14.9999 11.8739 15.5267 10.6021 16.4644 9.66446C17.4021 8.72678 18.6738 8.2 19.9999 8.2ZM19.9999 3.2C17.8112 3.2 15.644 3.63109 13.6219 4.46867C11.5998 5.30625 9.76245 6.53391 8.21481 8.08155C5.0892 11.2072 3.33325 15.4464 3.33325 19.8667C3.33325 24.2869 5.0892 28.5262 8.21481 31.6518C9.76245 33.1994 11.5998 34.4271 13.6219 35.2647C15.644 36.1022 17.8112 36.5333 19.9999 36.5333C24.4202 36.5333 28.6594 34.7774 31.785 31.6518C34.9106 28.5262 36.6666 24.2869 36.6666 19.8667C36.6666 10.65 29.1666 3.2 19.9999 3.2Z" fill="hsla(173, 68%, 44%, 1)"/>
</svg>

