<svg width="24" height="24" viewBox="0 0 24 24" fill="hsla(32, 98%, 56%, 1)" xmlns="http://www.w3.org/2000/svg">
<path d="M6 5V20M12 5V20M18 5V20" stroke="hsla(32, 98%, 56%, 1)" stroke-width="2" stroke-linecap="round"/>
<path d="M8.5 16C8.5 16.663 8.23661 17.2989 7.76777 17.7678C7.29893 18.2366 6.66304 18.5 6 18.5C5.33696 18.5 4.70107 18.2366 4.23223 17.7678C3.76339 17.2989 3.5 16.663 3.5 16C3.5 15.337 3.76339 14.7011 4.23223 14.2322C4.70107 13.7634 5.33696 13.5 6 13.5C6.66304 13.5 7.29893 13.7634 7.76777 14.2322C8.23661 14.7011 8.5 15.337 8.5 16ZM14.5 9C14.5 9.66304 14.2366 10.2989 13.7678 10.7678C13.2989 11.2366 12.663 11.5 12 11.5C11.337 11.5 10.7011 11.2366 10.2322 10.7678C9.76339 10.2989 9.5 9.66304 9.5 9C9.5 8.33696 9.76339 7.70107 10.2322 7.23223C10.7011 6.76339 11.337 6.5 12 6.5C12.663 6.5 13.2989 6.76339 13.7678 7.23223C14.2366 7.70107 14.5 8.33696 14.5 9ZM20.5 16C20.5 16.663 20.2366 17.2989 19.7678 17.7678C19.2989 18.2366 18.663 18.5 18 18.5C17.337 18.5 16.7011 18.2366 16.2322 17.7678C15.7634 17.2989 15.5 16.663 15.5 16C15.5 15.337 15.7634 14.7011 16.2322 14.2322C16.7011 13.7634 17.337 13.5 18 13.5C18.663 13.5 19.2989 13.7634 19.7678 14.2322C20.2366 14.7011 20.5 15.337 20.5 16Z" fill="hsla(32, 98%, 56%, 1)"/>
</svg>
