<svg width="30" height="31" viewBox="0 0 30 31" fill="none" xmlns="http://www.w3.org/2000/svg">
<path d="M14.3037 28.6074C6.41923 28.6074 0 22.1882 0 14.3037C0 6.41923 6.41923 0 14.3037 0C22.1882 0 28.6074 6.41923 28.6074 14.3037C28.6074 22.1882 22.1882 28.6074 14.3037 28.6074ZM14.3037 2.09323C7.56353 2.09323 2.09323 7.57748 2.09323 14.3037C2.09323 21.03 7.56353 26.5142 14.3037 26.5142C21.0439 26.5142 26.5142 21.03 26.5142 14.3037C26.5142 7.57748 21.0439 2.09323 14.3037 2.09323Z" fill="#08433F"/>
<path d="M14.3037 28.6074C6.41923 28.6074 0 22.1882 0 14.3037C0 6.41923 6.41923 0 14.3037 0C22.1882 0 28.6074 6.41923 28.6074 14.3037C28.6074 22.1882 22.1882 28.6074 14.3037 28.6074ZM14.3037 2.09323C7.56353 2.09323 2.09323 7.57748 2.09323 14.3037C2.09323 21.03 7.56353 26.5142 14.3037 26.5142C21.0439 26.5142 26.5142 21.03 26.5142 14.3037C26.5142 7.57748 21.0439 2.09323 14.3037 2.09323Z" fill="black" fill-opacity="0.2"/>
<path d="M28.9562 30.0028C28.691 30.0028 28.4259 29.9051 28.2166 29.6958L25.4256 26.9048C25.0209 26.5001 25.0209 25.8303 25.4256 25.4256C25.8303 25.0209 26.5001 25.0209 26.9048 25.4256L29.6958 28.2166C30.1005 28.6212 30.1005 29.2911 29.6958 29.6958C29.4865 29.9051 29.2213 30.0028 28.9562 30.0028Z" fill="#08433F"/>
<path d="M28.9562 30.0028C28.691 30.0028 28.4259 29.9051 28.2166 29.6958L25.4256 26.9048C25.0209 26.5001 25.0209 25.8303 25.4256 25.4256C25.8303 25.0209 26.5001 25.0209 26.9048 25.4256L29.6958 28.2166C30.1005 28.6212 30.1005 29.2911 29.6958 29.6958C29.4865 29.9051 29.2213 30.0028 28.9562 30.0028Z" fill="black" fill-opacity="0.2"/>
</svg>